<svg width="512" height="512" fill="none" xmlns="http://www.w3.org/2000/svg"><path d="M463.996 126.864L340.192 3.061A10.452 10.452 0 00332.803 0H95.726C67.724 0 44.944 22.782 44.944 50.784v410.434c0 28.001 22.781 50.783 50.783 50.783h320.547c28.002 0 50.783-22.781 50.783-50.783V134.253a10.458 10.458 0 00-3.061-7.389zM343.255 35.679l88.127 88.126H373.14c-7.984 0-15.49-3.109-21.134-8.753-5.643-5.643-8.752-13.148-8.751-21.131V35.679zm102.903 425.538c0 16.479-13.406 29.885-29.884 29.885H95.726c-16.479 0-29.885-13.406-29.885-29.885V50.784c.001-16.479 13.407-29.886 29.885-29.886h226.631v73.021c-.002 13.565 5.28 26.318 14.871 35.909 9.592 9.592 22.345 14.874 35.911 14.874h73.018v316.515h.001z" fill="#fff"/><path d="M275.092 351.492h-4.678c-5.77 0-10.449 4.678-10.449 10.449s4.679 10.449 10.449 10.449h4.678c5.77 0 10.449-4.678 10.449-10.449s-4.679-10.449-10.449-10.449zm-38.482 0H135.118c-5.77 0-10.449 4.678-10.449 10.449s4.679 10.449 10.449 10.449H236.61c5.77 0 10.449-4.678 10.449-10.449s-4.678-10.449-10.449-10.449zm140.272-47.745H135.119c-5.77 0-10.449 4.678-10.449 10.449s4.679 10.449 10.449 10.449h241.763c5.77 0 10.449-4.678 10.449-10.449s-4.679-10.449-10.449-10.449zm0-47.747H135.119c-5.77 0-10.449 4.678-10.449 10.449s4.679 10.449 10.449 10.449h241.763c5.77 0 10.449-4.678 10.449-10.449S382.652 256 376.882 256zm0-47.745H135.119c-5.77 0-10.449 4.678-10.449 10.449s4.679 10.449 10.449 10.449h241.763c5.77 0 10.449-4.678 10.449-10.449s-4.679-10.449-10.449-10.449z" fill="#fff"/></svg>