<svg width="36" height="40" fill="none" xmlns="http://www.w3.org/2000/svg"><path d="M17.472 4.26l-1.89 12.541 6.114 3.887 7.91-3.516L17.472 4.261z" fill="#5484F7"/><path d="M.125 7.758L15.582 16.8l1.89-12.54L.124 7.758z" fill="#3E74F4"/><path d="M22.847 9.98l2.166-3.725 4.593 10.917-6.76-7.192z" fill="#1448C3"/><path d="M33.822 6.146l-8.81.11 4.594 10.916 4.215-11.026z" fill="#3E74F4"/><path d="M35.875 9.164l-2.053-3.018-.806 2.106 2.86.912z" fill="#1448C3"/><path d="M17.727.75l7.286 5.505-2.166 3.725-5.375-5.72.255-3.51z" fill="#3E74F4"/><path d="M.571 5.232L17.728.75l-.256 3.51L3.49 7.08.57 5.232z" fill="#1448C4"/><path d="M8.233 27.05l8.093-9.776 5.37 3.414-13.463 6.363z" fill="#1448C3"/><path d="M15.611 39.937l6.085-19.249-13.463 6.363 7.378 12.886z" fill="#5484F7"/></svg>