<svg width="488" height="347" fill="none" xmlns="http://www.w3.org/2000/svg"><path d="M352.8 113.3H23.3C10.4 113.3 0 123.7 0 136.6v186.3c0 12.9 10.4 23.3 23.3 23.3h329.5c12.9 0 23.3-10.4 23.3-23.3V136.6c0-12.9-10.5-23.3-23.3-23.3zm-4.5 166.5c-1.9-.3-3.8-.5-5.8-.5-18.2 0-33 14.8-33 33 0 2.1.2 4.1.6 6.1H68.7c.2-1.3.3-2.7.3-4.1 0-18.2-14.8-33-33-33-2.8 0-5.6.4-8.2 1V181.1c2.6.7 5.3 1 8.2 1 18.2 0 33-14.8 33-33 0-2.8-.4-5.5-1-8h242.1c-.4 2-.6 4-.6 6.1 0 18.2 14.8 33 33 33 2 0 3.9-.2 5.8-.5v100.1zm83.4-190.7v168.1c0 3.1-.4 6.1-1.3 9-4.3 14.8-26.5 11.1-26.5-4.3V99.5c0-8.2-6.7-14.9-14.9-14.9H83.2c-15.4 0-19.1-22.2-4.3-26.5 2.9-.8 5.9-1.3 9-1.3h311.3c18-.1 32.5 14.4 32.5 32.3zm56-56.7v168.1c0 3.1-.4 6.1-1.3 9-4.3 14.8-26.5 11.1-26.5-4.3V42.7c0-8.2-6.7-14.9-14.9-14.9H139.1c-15.4 0-19.1-22.2-4.3-26.5 2.9-.8 5.9-1.3 9-1.3h311.3c18.1 0 32.6 14.5 32.6 32.4zM309.8 229.5c0 10.9-8.8 19.7-19.7 19.7-10.9 0-19.7-8.8-19.7-19.7 0-10.9 8.8-19.7 19.7-19.7 10.9 0 19.7 8.8 19.7 19.7zm-206.5 0c0 10.9-8.8 19.7-19.7 19.7-10.9 0-19.7-8.8-19.7-19.7 0-10.9 8.8-19.7 19.7-19.7 10.9 0 19.7 8.8 19.7 19.7zm83.6-71c-39.2 0-71 31.8-71 71s31.8 71 71 71 71-31.8 71-71-31.8-71-71-71zm0 112.1c-22.7 0-41.1-18.4-41.1-41.1 0-22.7 18.4-41.1 41.1-41.1 22.7 0 41.1 18.4 41.1 41.1 0 22.7-18.5 41.1-41.1 41.1z" fill="#fff"/></svg>