<svg width="60" height="60" fill="none" xmlns="http://www.w3.org/2000/svg"><g clip-path="url(#clip0_2_4)" fill="#fff"><path d="M44.071 38.385c-1.275-.728-2.597-.958-3.721-.646-.844.234-1.532.768-1.995 1.546-1.021 1.221-2.287 2.646-2.592 2.867-2.371 1.604-4.252 1.414-6.295-.629L17.982 30.037c-2.045-2.045-2.233-3.928-.631-6.292.224-.31 1.649-1.575 2.869-2.595.778-.464 1.312-1.151 1.546-1.996.311-1.123.081-2.444-.653-3.731-.173-.296-4.289-7.27-8.085-9.277a4.907 4.907 0 00-5.796.872L4.695 9.555c-7.401 7.402-6.031 16.596 3.962 26.588l14.705 14.706c4.539 4.54 8.937 7.326 13.068 8.281 1.096.253 2.17.38 3.224.38 3.717 0 7.169-1.573 10.296-4.7l2.537-2.537a4.907 4.907 0 00.872-5.796c-2.008-3.795-8.981-7.913-9.288-8.092zm7.002 12.473l-2.537 2.537c-6.568 6.568-14.563 5.237-23.76-3.961L10.071 34.728c-9.197-9.196-10.53-17.19-3.962-23.76l2.537-2.537a2.924 2.924 0 013.446-.518c3.294 1.743 7.256 8.454 7.289 8.511.449.787.62 1.608.457 2.196-.1.36-.323.634-.684.836l-.15.104c-.853.712-2.883 2.434-3.308 3.061-.612.904-1.018 1.792-1.231 2.665-.711-1.418-1.285-3.06-1.474-4.881a1.007 1.007 0 00-1.099-.892A1.003 1.003 0 0011 20.612c.722 6.953 6.13 11.479 6.359 11.668.025.021.055.028.081.046l10.612 10.612c.045.045.091.084.136.127.035.052.058.109.104.155.189.187 4.704 4.567 11.599 5.283a1.001 1.001 0 00.206-1.99c-2.115-.219-3.988-.839-5.549-1.558.766-.23 1.545-.612 2.334-1.147.627-.426 2.349-2.454 3.06-3.307l.104-.151c.202-.359.476-.583.836-.684.585-.159 1.408.007 2.185.45 1.879 1.102 7.073 4.56 8.521 7.296a2.913 2.913 0 01-.515 3.446zM27.362.487a1 1 0 100 2c16.892 0 30.635 13.743 30.635 30.635a1 1 0 102 0c0-17.995-14.64-32.635-32.635-32.635z"/><path d="M27.362 9.517c13.016 0 23.604 10.589 23.604 23.604a1 1 0 102 0c0-14.118-11.486-25.604-25.604-25.604a1 1 0 100 2z"/><path d="M27.362 16.547c9.14 0 16.575 7.436 16.575 16.575a1 1 0 102 0c0-10.242-8.333-18.575-18.575-18.575a1 1 0 100 2z"/></g><defs><clipPath id="clip0_2_4"><path fill="#fff" d="M0 0h59.997v59.997H0z"/></clipPath></defs></svg>