<svg width="293" height="293" fill="none" xmlns="http://www.w3.org/2000/svg"><g clip-path="url(#clip0_3_2)" fill="#333"><path d="M146.345 0C65.65 0 0 65.648 0 146.341c0 80.694 65.65 146.345 146.345 146.345 80.692 0 146.341-65.65 146.341-146.345C292.686 65.648 227.037 0 146.345 0zm95.614 175.138l16.343 2.878a115.3 115.3 0 01-5.279 14.721L238.57 184.4c-5.98-3.45-13.625-1.397-17.074 4.582-3.449 5.98-1.397 13.624 4.582 17.074l14.535 8.384a117.347 117.347 0 01-10.038 12.076l-10.851-12.918c-4.439-5.284-12.324-5.972-17.611-1.531-5.286 4.44-5.972 12.325-1.531 17.611l10.921 13.002c-4.34 2.945-8.893 5.6-13.623 7.947l-5.841-16.034c-2.363-6.488-9.537-9.831-16.023-7.467-6.487 2.363-9.83 9.537-7.467 16.023l5.867 16.104a115.552 115.552 0 01-15.575 2.759v-17.16c0-6.903-5.597-12.5-12.5-12.5s-12.5 5.597-12.5 12.5v17.158a115.62 115.62 0 01-15.567-2.758l5.858-16.076c2.363-6.486-.979-13.66-7.466-16.024-6.485-2.366-13.661.979-16.024 7.466l-5.833 16.008c-4.73-2.347-9.281-5-13.621-7.945l10.903-12.984c4.439-5.287 3.753-13.171-1.534-17.61-5.287-4.441-13.172-3.753-17.61 1.534L62.116 226.52a117.26 117.26 0 01-10.04-12.076l14.517-8.375c5.981-3.449 8.031-11.094 4.581-17.073-3.449-5.98-11.096-8.031-17.073-4.581l-14.435 8.328a115.398 115.398 0 01-5.282-14.727l16.33-2.873c6.799-1.195 11.341-7.678 10.145-14.477-1.196-6.799-7.673-11.339-14.476-10.145l-16.163 2.844c-.141-2.325-.22-4.665-.22-7.024 0-2.867.109-5.709.314-8.526l16.058 2.837c.735.13 1.468.192 2.189.192 5.95 0 11.224-4.265 12.295-10.327 1.201-6.798-3.337-13.283-10.135-14.484l-15.911-2.811a115.438 115.438 0 015.386-14.493l13.887 8.026a12.495 12.495 0 0017.077-4.567c3.455-5.978 1.409-13.623-4.567-17.077l-13.737-7.939a117.25 117.25 0 019.945-11.711l10.132 12.08a12.475 12.475 0 009.584 4.468c2.834 0 5.685-.959 8.025-2.923 5.29-4.437 5.981-12.32 1.545-17.609l-10.08-12.019a116.43 116.43 0 0113.271-7.633l5.355 14.713c1.848 5.076 6.641 8.228 11.747 8.228 1.419 0 2.863-.243 4.274-.757 6.487-2.361 9.832-9.534 7.471-16.021l-5.342-14.679a115.864 115.864 0 0115.059-2.634v15.601c0 6.903 5.597 12.5 12.5 12.5s12.5-5.597 12.5-12.5V30.673a115.575 115.575 0 0115.075 2.637l-5.349 14.694c-2.361 6.487.983 13.66 7.471 16.021 1.411.514 2.855.757 4.275.757 5.105 0 9.899-3.151 11.747-8.228l5.361-14.726a116.476 116.476 0 0113.268 7.633l-10.091 12.026c-4.438 5.289-3.748 13.173 1.54 17.61a12.447 12.447 0 008.028 2.925c3.567 0 7.11-1.519 9.582-4.465l10.146-12.091a117.308 117.308 0 019.941 11.708l-13.748 7.936c-5.98 3.452-8.028 11.097-4.577 17.075a12.497 12.497 0 0017.075 4.577l13.909-8.029a115.386 115.386 0 015.384 14.49l-15.922 2.809c-6.799 1.199-11.338 7.683-10.138 14.481 1.069 6.064 6.344 10.33 12.295 10.33.721 0 1.452-.063 2.186-.192l16.074-2.836c.205 2.815.314 5.658.314 8.524 0 2.359-.079 4.699-.218 7.023l-16.174-2.848c-6.789-1.198-13.281 3.343-14.477 10.144-1.201 6.801 3.34 13.283 10.14 14.48z"/><path d="M146.345 82.05c-35.452 0-64.295 28.841-64.295 64.291 0 35.452 28.843 64.295 64.295 64.295 35.45 0 64.291-28.843 64.291-64.295 0-35.45-28.841-64.291-64.291-64.291zm0 98.586c-18.91 0-34.295-15.385-34.295-34.295 0-18.908 15.385-34.291 34.295-34.291 18.908 0 34.291 15.383 34.291 34.291 0 18.91-15.383 34.295-34.291 34.295z"/></g><defs><clipPath id="clip0_3_2"><path fill="#fff" d="M0 0h292.686v292.686H0z"/></clipPath></defs></svg>