<svg width="48" height="48" fill="none" xmlns="http://www.w3.org/2000/svg"><path d="M30.213 26.818c0 3.414-2.686 6.182-6 6.182s-6-2.768-6-6.182c0-5.409 6-11.818 6-11.818s6 6.41 6 11.818z" fill="#333"/><path fill-rule="evenodd" clip-rule="evenodd" d="M34.113 14.1c-5.468-5.467-14.332-5.467-19.8 0L12.9 12.687c6.249-6.248 16.38-6.248 22.628 0a15.953 15.953 0 014.686 11.263v3.637l3.293-3.293 1.414 1.414-5 5-.707.707-.707-.707-5-5 1.414-1.414 3.293 3.292v-3.63a13.952 13.952 0 00-4.1-9.854zm-19.8 19.8c5.468 5.467 14.332 5.467 19.8 0l1.414 1.414c-6.248 6.248-16.38 6.248-22.628 0a15.953 15.953 0 01-4.686-11.31v-3.592L4.92 23.708l-1.414-1.414 5-5 .707-.707.707.707 5 5-1.414 1.414-3.293-3.293v3.589a13.96 13.96 0 004.1 9.897z" fill="#333"/></svg>