<svg width="512" height="202" fill="none" xmlns="http://www.w3.org/2000/svg"><path d="M501.637 78.85h-26.371c-7.172-24.956-23.903-48.923-50.277-48.923H176.578c-.456 0-.907.019-1.354.055-21.617.743-39.369 19.285-47.875 47.144H99.108a6.536 6.536 0 01-6.529-6.529V40.834C92.579 18.805 74.657.883 52.628.883H16.711C7.482.882 0 8.364 0 17.593c0 9.229 7.482 16.711 16.711 16.711h35.917a6.536 6.536 0 016.529 6.529v29.763c0 22.029 17.922 39.951 39.951 39.951h22.896c-.055 1.65-.089 3.311-.089 4.991 0 48.789 23.5 85.58 54.663 85.58.367 0 .731-.011 1.112-.03 2.47 0 246.274.006 247.529-.011.1.001.199.011.3.011 28.683 0 50.859-31.18 54.208-74.186h21.91c5.723 0 10.363-10.757 10.363-24.026 0-13.268-4.64-24.026-10.363-24.026zm-120.062 88.814H177.252v.001c-.162 0-.323.002-.485.007-.141.003-.283.01-.429.017-7.539-.411-21.004-20.135-21.004-52.152 0-32.356 13.753-52.159 21.242-52.159.344 0 .686-.01 1.025-.031h203.974c-7.581 15.923-10.723 34.662-10.723 52.159 0 17.468 3.132 36.216 10.723 52.158zm44.008-.004c-.06-.002-.118-.012-.178-.013-7.45-.186-21.129-20.122-21.129-52.14s13.679-51.955 21.129-52.14c.062-.001.123-.011.185-.013 3.952.065 9.609 5.579 14.083 15.496h-10.782c-5.723 0-10.363 10.757-10.363 24.026 0 13.268 4.639 24.026 10.363 24.026h17.276c-2.7 25.464-14.01 40.66-20.584 40.758z" fill="#333"/></svg>